<?xml version="1.0" encoding="utf-8"?>
<!-- Generator: Adobe Illustrator 25.2.3, SVG Export Plug-In . SVG Version: 6.00 Build 0)  -->
<svg version="1.1" id="Layer_1" xmlns="http://www.w3.org/2000/svg" xmlns:xlink="http://www.w3.org/1999/xlink" x="0px" y="0px"
	 viewBox="0 0 500 500" style="enable-background:new 0 0 500 500;" xml:space="preserve">
<style type="text/css">
	.st0{fill:#71B25A;}
	.st1{fill:#111612;}
</style>
<path class="st0" d="M483,219.8c0,58.4-44.3,105.7-99,105.7c-1.1,0-2.1,0-3.2-0.1l-34.2,24.3H121.9L79.1,243.8l19.5-89.2l30.7-62.8
	h183.1l44.1,26.4c8.7-2.7,18-4.1,27.5-4.1C438.7,114.1,483,161.4,483,219.8z"/>
<path class="st1" d="M306.3,195v55.8c0,15.2,8.3,29.3,21.9,36.1c0.6,0.3,1.2,0.6,1.8,0.9c7.6,3.4,15.9,5,24.2,5h88.3
	c3.3,0,5.8,2.9,5.5,6.2c-5.5,49.2-48.8,51.8-48.8,51.8s0,0.9-74.1,0c-70.5-0.8-77.9-68.9-78.4-75.4c0-0.3,0-0.6,0-0.9v-98
	c0-39.7,19.5-60.8,39.3-72l3.8-42.3c0.4-4.6,5.8-6.8,9.3-3.7l35.7,31.1c0.8,0.7,1.3,1.5,1.6,2.3H389l34.5-30c3.5-3,8.9-0.8,9.3,3.7
	l4,44.3c10.8,12.1,14.5,27.1,15.8,35.4c0.5,3.3-2,6.2-5.3,6.2h-99.1c-1.5,0-3,0-4.6,0.2c-9.5,1-16.8,4.9-22.2,9.6
	C311.6,169.7,306.3,182.2,306.3,195z"/>
<path class="st1" d="M359,424.2c-0.5,10.6-9.3,18.9-19.9,18.9c-0.3,0-0.7,0-1,0c-11-0.5-19.4-9.9-18.9-20.8
	c0.4-7.9-2.2-10.1-3.5-11.2c-7.9-6.6-32.4-9.9-77.2,0.7c-64.2,15.1-149.7,27.1-192.5-1.8C31.6,400.1,22.5,386,20,369
	c-4.6-30.9,13.1-50.3,29.3-60c0,0,11.6,21.7,27.1,30.5c-4.7,1.8-19.2,9.2-17.1,23.5c0.9,6,3.7,10.2,9.1,13.9
	c23.1,15.6,84.8,14.1,161.1-3.9c53.1-12.5,90.7-10,111.7,7.5C350,387.8,360.2,401.3,359,424.2z"/>
<path class="st1" d="M257.3,349.8c0,0-78.2,0.3-144.3,0c-12.3-0.1-22.6-2.7-31.2-7.1c-1.9-1-3.7-2-5.4-3.1
	C60.9,330.7,49.3,309,49.3,309c-0.1-0.2-0.3-0.5-0.4-0.7c-8.6-17.4-11.5-34.5-11.6-48.9c-0.1-13.7-0.2-39.8,0.2-86
	c0.7-79.6,82.9-81.6,82.9-81.6h137.3c-21.8,17.7-29.9,45.2-32.2,55.6c-0.6,2.4-2.7,4.1-5.2,4.1H137c-1,0-2.1,0.1-3.1,0.3
	c-0.3,0-0.5,0.1-0.8,0.1c-19.7,3.8-33.8,21.3-34.5,41.4h116.9c2.9,0,5.3,2.4,5.3,5.3v45.1c0,2.9-2.4,5.3-5.3,5.3H96.1
	c0.1,3.7,0.3,6.4,0.4,7.6c2.9,18,12.6,27.9,23,31.6c8.4,3,14.5,4.6,22.1,4.6h78.9c2.5,0,4.7,1.7,5.2,4.1
	C235.8,337.4,257.3,349.8,257.3,349.8z"/>
<g>
	<path class="st1" d="M390.7,244.2c0.4-0.7,0.9-1.5,1.3-2.2c-0.4,0.8-0.7,1.6-0.8,2.4C391,244.3,390.9,244.2,390.7,244.2z"/>
</g>
<g>
	<path class="st1" d="M440.5,248.4c-6.6,12.5-14.6,18.8-23.6,18.8c-7.8,0-14.2-4.9-18.5-9.8c-5.3,6.5-11.2,9.8-17.7,9.8
		c-14.5,0-23.9-16.9-24.9-18.8c-1.8-3.4-0.5-7.6,2.9-9.4c3.4-1.8,7.6-0.5,9.4,2.9c1.9,3.6,7.8,11.4,12.6,11.4h0
		c2.9,0,6.5-3.3,10-9.2c0.2,0.1,0.3,0.1,0.5,0.2c0.1-0.8,0.4-1.7,0.8-2.4c-0.4,0.8-0.8,1.5-1.3,2.2c-6.3-1.8-10.7-5.8-10.7-10.5
		c0-6.4,8.1-11.5,18.1-11.5c10,0,18.1,5.2,18.1,11.5c0,4.7-4.3,8.7-10.6,10.5c-0.6-0.8-1-1.6-1.4-2.2c0.4,0.8,0.7,1.6,0.8,2.4
		c0.2,0,0.4-0.1,0.6-0.2c2.6,3.9,7.3,9.2,11.3,9.2c0,0,0,0,0,0c3.3,0,7.4-4.2,11.3-11.4c1.8-3.4,6-4.7,9.4-2.9
		C441,240.8,442.3,245.1,440.5,248.4z"/>
	<path class="st1" d="M405.6,244.1c-0.2,0.1-0.4,0.1-0.6,0.2c-0.1-0.8-0.4-1.7-0.8-2.4C404.6,242.5,405.1,243.3,405.6,244.1z"/>
</g>
<path class="st1" d="M390.7,244.2c0.4-0.7,0.9-1.5,1.3-2.2c-0.4,0.8-0.7,1.6-0.8,2.4C391,244.3,390.9,244.2,390.7,244.2z"/>
<path class="st1" d="M405.6,244.1c-0.2,0.1-0.4,0.1-0.6,0.2c-0.1-0.8-0.4-1.7-0.8-2.4C404.6,242.5,405.1,243.3,405.6,244.1z"/>
<circle class="st1" cx="345.7" cy="211.5" r="19.9"/>
<circle class="st1" cx="454.2" cy="211.5" r="19.9"/>
</svg>
