<svg xmlns="http://www.w3.org/2000/svg" xmlns:xlink="http://www.w3.org/1999/xlink" width="70" height="70" viewBox="0 0 70 70"><defs><style>.a,.b{fill:#fff;}.b{opacity:0.1;}.c{clip-path:url(#a);}</style><clipPath id="a"><rect class="a" width="45.059" height="41.674"/></clipPath></defs><g transform="translate(-28 -985)"><circle class="b" cx="35" cy="35" r="35" transform="translate(28 985)"/><g transform="translate(9.758 966.334)"><g transform="translate(31.243 34.833)"><g class="c"><path class="a" d="M23.307,16.1l1.08,2.96a2.307,2.307,0,0,0,2.957,1.376l13.878-5.062a2.138,2.138,0,0,1,2.591,1.509l1.08,2.96a2.138,2.138,0,0,1-1.011,2.823L30,27.731a2.307,2.307,0,0,0-1.377,2.958l1.079,2.959a2.305,2.305,0,0,1-1.339,2.943l-.036.014L14.816,41.534l-.037.012a2.306,2.306,0,0,1-2.92-1.389L10.78,37.2a2.306,2.306,0,0,1,1.377-2.956L25.67,29.313l.036-.015a2.306,2.306,0,0,0,1.34-2.943l-1.08-2.96a2.307,2.307,0,0,0-2.957-1.376L9.131,27.081a2.139,2.139,0,0,1-2.592-1.51L5.46,22.611A2.147,2.147,0,0,1,6.44,19.8l.031-.012,13.915-5.075a2.306,2.306,0,0,0,1.34-2.943l-1.08-2.96A2.307,2.307,0,0,0,17.69,7.433L4.177,12.361A2.306,2.306,0,0,1,1.22,10.986L.14,8.026A2.307,2.307,0,0,1,1.517,5.069L15.031.14a2.306,2.306,0,0,1,2.956,1.377l1.079,2.959a2.307,2.307,0,0,0,2.957,1.376L35.9.791A2.138,2.138,0,0,1,38.494,2.3L39.573,5.26a2.138,2.138,0,0,1-1.011,2.823L24.684,13.145A2.307,2.307,0,0,0,23.307,16.1" transform="translate(0 0)"/></g></g></g></g></svg>